<svg width="24" height="24" viewBox="0 0 24 24" fill="none" xmlns="http://www.w3.org/2000/svg">
<path d="M5 6.6C5 5.71634 5.71634 5 6.6 5H9.6C10.4837 5 11.2 5.71634 11.2 6.6V9.6C11.2 10.4837 10.4837 11.2 9.6 11.2H6.6C5.71634 11.2 5 10.4837 5 9.6V6.6Z" fill="#0971E8"/>
<path d="M5 14.4C5 13.5163 5.71634 12.8 6.6 12.8H9.6C10.4837 12.8 11.2 13.5163 11.2 14.4V17.4C11.2 18.2837 10.4837 19 9.6 19H6.6C5.71634 19 5 18.2837 5 17.4V14.4Z" fill="#0971E8"/>
<path d="M12.8 6.6C12.8 5.71634 13.5163 5 14.4 5H17.4C18.2837 5 19 5.71634 19 6.6V9.6C19 10.4837 18.2837 11.2 17.4 11.2H14.4C13.5163 11.2 12.8 10.4837 12.8 9.6V6.6Z" fill="#0971E8"/>
<path d="M12.8 14.4C12.8 13.5163 13.5163 12.8 14.4 12.8H17.4C18.2837 12.8 19 13.5163 19 14.4V17.4C19 18.2837 18.2837 19 17.4 19H14.4C13.5163 19 12.8 18.2837 12.8 17.4V14.4Z" fill="#0971E8"/>
</svg>
