<svg width="24" height="24" viewBox="0 0 24 24" fill="none" xmlns="http://www.w3.org/2000/svg">
<path d="M3 6.33333C3 5.59695 3.59695 5 4.33333 5C5.06971 5 5.66667 5.59695 5.66667 6.33333C5.66667 7.06971 5.06971 7.66667 4.33333 7.66667C3.59695 7.66667 3 7.06971 3 6.33333Z" fill="#A2A2A2"/>
<path d="M3 11.6667C3 10.9303 3.59695 10.3333 4.33333 10.3333C5.06971 10.3333 5.66667 10.9303 5.66667 11.6667C5.66667 12.403 5.06971 13 4.33333 13C3.59695 13 3 12.403 3 11.6667Z" fill="#A2A2A2"/>
<path d="M3 17C3 16.2636 3.59695 15.6667 4.33333 15.6667C5.06971 15.6667 5.66667 16.2636 5.66667 17C5.66667 17.7364 5.06971 18.3333 4.33333 18.3333C3.59695 18.3333 3 17.7364 3 17Z" fill="#A2A2A2"/>
<path d="M7 6.33333C7 5.59695 7.59695 5 8.33333 5H18.6667C19.403 5 20 5.59695 20 6.33333C20 7.06971 19.403 7.66667 18.6667 7.66667H8.33333C7.59695 7.66667 7 7.06971 7 6.33333Z" fill="#A2A2A2"/>
<path d="M7 11.6667C7 10.9303 7.59695 10.3333 8.33333 10.3333H18.6667C19.403 10.3333 20 10.9303 20 11.6667C20 12.403 19.403 13 18.6667 13H8.33333C7.59695 13 7 12.403 7 11.6667Z" fill="#A2A2A2"/>
<path d="M7 17C7 16.2636 7.59695 15.6667 8.33333 15.6667H18.6667C19.403 15.6667 20 16.2636 20 17C20 17.7364 19.403 18.3333 18.6667 18.3333H8.33333C7.59695 18.3333 7 17.7364 7 17Z" fill="#A2A2A2"/>
</svg>
