<svg width="24" height="24" viewBox="0 0 24 24" fill="none" xmlns="http://www.w3.org/2000/svg">
<path fill-rule="evenodd" clip-rule="evenodd" d="M18 10.1429C18 10.8044 17.7238 11.774 17.1076 12.9869C16.5107 14.1616 15.6835 15.3934 14.7984 16.5273C13.9153 17.6587 13.0113 18.6457 12.2913 19.3327C12.1878 19.4314 12.0906 19.5216 12 19.6033C11.9095 19.5216 11.8122 19.4314 11.7087 19.3327C10.9887 18.6457 10.0847 17.6587 9.20158 16.5273C8.31654 15.3934 7.48929 14.1616 6.89244 12.9869C6.27621 11.774 6 10.8044 6 10.1429C6 6.71673 8.71952 4 12 4C15.2805 4 18 6.71673 18 10.1429ZM20 10.1429C20 14.64 13 22 12 22C11 22 4 14.64 4 10.1429C4 5.64568 7.58172 2 12 2C16.4183 2 20 5.64568 20 10.1429ZM13 10C13 10.5523 12.5523 11 12 11C11.4477 11 11 10.5523 11 10C11 9.44772 11.4477 9 12 9C12.5523 9 13 9.44772 13 10ZM15 10C15 11.6569 13.6569 13 12 13C10.3431 13 9 11.6569 9 10C9 8.34315 10.3431 7 12 7C13.6569 7 15 8.34315 15 10Z" fill="white"/>
</svg>
