<svg width="218" height="33" viewBox="0 0 218 33" fill="none" xmlns="http://www.w3.org/2000/svg">
<rect width="217.732" height="32" fill="#0971E8"/>
<path d="M49.6273 17V7.18182H53.1557V17H49.6273ZM51.3915 6.15909C50.9142 6.15909 50.5051 6.00142 50.1642 5.68608C49.8233 5.37074 49.6529 4.99148 49.6529 4.5483C49.6529 4.10511 49.8233 3.72585 50.1642 3.41051C50.5051 3.09517 50.9142 2.9375 51.3915 2.9375C51.873 2.9375 52.2821 3.09517 52.6188 3.41051C52.9597 3.72585 53.1301 4.10511 53.1301 4.5483C53.1301 4.99148 52.9597 5.37074 52.6188 5.68608C52.2821 6.00142 51.873 6.15909 51.3915 6.15909ZM58.4819 11.4773V17H54.9535V7.18182H58.3029V9.0483H58.4052C58.6183 8.42614 58.9933 7.93821 59.5302 7.58452C60.0714 7.23082 60.7021 7.05398 61.4222 7.05398C62.1168 7.05398 62.7198 7.21378 63.2312 7.53338C63.7468 7.84872 64.1452 8.28338 64.4265 8.83736C64.712 9.39134 64.8526 10.0241 64.8484 10.7358V17H61.32V11.4773C61.3242 10.9915 61.2006 10.6101 60.9492 10.3331C60.7021 10.0561 60.3569 9.91761 59.9137 9.91761C59.6239 9.91761 59.3704 9.98153 59.1531 10.1094C58.94 10.233 58.7759 10.4119 58.6609 10.6463C58.5458 10.8764 58.4862 11.1534 58.4819 11.4773ZM72.4453 7.18182V9.73864H65.9766V7.18182H72.4453ZM67.2294 4.82955H70.7578V13.8423C70.7578 13.9787 70.7812 14.0938 70.8281 14.1875C70.875 14.277 70.9474 14.3452 71.0455 14.392C71.1435 14.4347 71.2692 14.456 71.4226 14.456C71.5291 14.456 71.6527 14.4432 71.7933 14.4176C71.9382 14.392 72.0447 14.3707 72.1129 14.3537L72.6243 16.8338C72.4666 16.8807 72.2408 16.9382 71.9467 17.0064C71.657 17.0746 71.3118 17.1193 70.9112 17.1406C70.1016 17.1832 69.4219 17.1001 68.8722 16.8913C68.3224 16.6783 67.9091 16.3437 67.6321 15.8878C67.3551 15.4318 67.2209 14.8608 67.2294 14.1747V4.82955ZM78.4842 17.179C77.4359 17.179 76.5325 16.9787 75.774 16.5781C75.0197 16.1733 74.438 15.5937 74.0289 14.8395C73.6241 14.081 73.4217 13.1733 73.4217 12.1165C73.4217 11.1023 73.6262 10.2159 74.0353 9.45739C74.4444 8.69886 75.0218 8.10866 75.7676 7.68679C76.5133 7.26491 77.3933 7.05398 78.4075 7.05398C79.149 7.05398 79.8201 7.16903 80.421 7.39915C81.0218 7.62926 81.5353 7.96378 81.9615 8.4027C82.3876 8.83736 82.7157 9.36577 82.9458 9.98793C83.176 10.6101 83.291 11.3111 83.291 12.0909V12.9091H74.5211V10.9659H80.0439C80.0396 10.6847 79.9672 10.4375 79.8265 10.2244C79.6902 10.0071 79.5048 9.83878 79.2704 9.71946C79.0403 9.59588 78.7782 9.53409 78.4842 9.53409C78.1987 9.53409 77.9366 9.59588 77.698 9.71946C77.4593 9.83878 77.2676 10.005 77.1227 10.218C76.9821 10.4311 76.9075 10.6804 76.899 10.9659V13.0625C76.899 13.3778 76.965 13.6591 77.0971 13.9062C77.2292 14.1534 77.4189 14.3473 77.666 14.4879C77.9132 14.6286 78.2115 14.6989 78.5609 14.6989C78.8038 14.6989 79.0254 14.6648 79.2257 14.5966C79.4302 14.5284 79.6049 14.4304 79.7498 14.3026C79.8947 14.1705 80.0012 14.0128 80.0694 13.8295H83.291C83.1802 14.5114 82.9181 15.1037 82.5048 15.6065C82.0914 16.1051 81.5439 16.4929 80.862 16.7699C80.1845 17.0426 79.3919 17.179 78.4842 17.179ZM84.7308 17V7.18182H88.157V9.0483H88.2592C88.4382 8.35795 88.7216 7.85298 89.1094 7.53338C89.5014 7.21378 89.9595 7.05398 90.4837 7.05398C90.6371 7.05398 90.7884 7.06676 90.9375 7.09233C91.0909 7.11364 91.2379 7.1456 91.3786 7.18821V10.1989C91.2038 10.1392 90.9886 10.0945 90.733 10.0646C90.4773 10.0348 90.2578 10.0199 90.0746 10.0199C89.7294 10.0199 89.4183 10.0987 89.1413 10.2564C88.8686 10.4098 88.6534 10.6271 88.4957 10.9084C88.3381 11.1854 88.2592 11.5114 88.2592 11.8864V17H84.7308ZM96.0639 11.4773V17H92.5355V7.18182H95.8849V9.0483H95.9872C96.2003 8.42614 96.5753 7.93821 97.1122 7.58452C97.6534 7.23082 98.2841 7.05398 99.0043 7.05398C99.6989 7.05398 100.302 7.21378 100.813 7.53338C101.329 7.84872 101.727 8.28338 102.009 8.83736C102.294 9.39134 102.435 10.0241 102.43 10.7358V17H98.902V11.4773C98.9063 10.9915 98.7827 10.6101 98.5312 10.3331C98.2841 10.0561 97.9389 9.91761 97.4957 9.91761C97.206 9.91761 96.9524 9.98153 96.7351 10.1094C96.522 10.233 96.358 10.4119 96.2429 10.6463C96.1278 10.8764 96.0682 11.1534 96.0639 11.4773ZM108.877 17.179C107.828 17.179 106.925 16.9787 106.167 16.5781C105.412 16.1733 104.831 15.5937 104.422 14.8395C104.017 14.081 103.814 13.1733 103.814 12.1165C103.814 11.1023 104.019 10.2159 104.428 9.45739C104.837 8.69886 105.414 8.10866 106.16 7.68679C106.906 7.26491 107.786 7.05398 108.8 7.05398C109.542 7.05398 110.213 7.16903 110.814 7.39915C111.414 7.62926 111.928 7.96378 112.354 8.4027C112.78 8.83736 113.108 9.36577 113.338 9.98793C113.569 10.6101 113.684 11.3111 113.684 12.0909V12.9091H104.914V10.9659H110.436C110.432 10.6847 110.36 10.4375 110.219 10.2244C110.083 10.0071 109.897 9.83878 109.663 9.71946C109.433 9.59588 109.171 9.53409 108.877 9.53409C108.591 9.53409 108.329 9.59588 108.091 9.71946C107.852 9.83878 107.66 10.005 107.515 10.218C107.375 10.4311 107.3 10.6804 107.292 10.9659V13.0625C107.292 13.3778 107.358 13.6591 107.49 13.9062C107.622 14.1534 107.811 14.3473 108.059 14.4879C108.306 14.6286 108.604 14.6989 108.953 14.6989C109.196 14.6989 109.418 14.6648 109.618 14.5966C109.823 14.5284 109.998 14.4304 110.142 14.3026C110.287 14.1705 110.394 14.0128 110.462 13.8295H113.684C113.573 14.5114 113.311 15.1037 112.897 15.6065C112.484 16.1051 111.936 16.4929 111.255 16.7699C110.577 17.0426 109.784 17.179 108.877 17.179ZM120.979 7.18182V9.73864H114.51V7.18182H120.979ZM115.763 4.82955H119.291V13.8423C119.291 13.9787 119.314 14.0938 119.361 14.1875C119.408 14.277 119.481 14.3452 119.579 14.392C119.677 14.4347 119.802 14.456 119.956 14.456C120.062 14.456 120.186 14.4432 120.327 14.4176C120.471 14.392 120.578 14.3707 120.646 14.3537L121.157 16.8338C121 16.8807 120.774 16.9382 120.48 17.0064C120.19 17.0746 119.845 17.1193 119.444 17.1406C118.635 17.1832 117.955 17.1001 117.405 16.8913C116.856 16.6783 116.442 16.3437 116.165 15.8878C115.888 15.4318 115.754 14.8608 115.763 14.1747V4.82955ZM128.615 10.4545V13.1136H122.479V10.4545H128.615ZM130.715 20.6818V7.18182H134.218V8.89489H134.295C134.423 8.5625 134.61 8.25781 134.857 7.98082C135.104 7.69957 135.411 7.47585 135.778 7.30966C136.144 7.1392 136.57 7.05398 137.056 7.05398C137.704 7.05398 138.32 7.22656 138.903 7.57173C139.491 7.9169 139.969 8.46023 140.335 9.2017C140.706 9.94318 140.891 10.9062 140.891 12.0909C140.891 13.2244 140.714 14.1641 140.361 14.9098C140.011 15.6555 139.543 16.2116 138.955 16.5781C138.371 16.9446 137.729 17.1278 137.031 17.1278C136.57 17.1278 136.159 17.0533 135.797 16.9041C135.439 16.7507 135.132 16.544 134.876 16.2841C134.625 16.0199 134.431 15.7216 134.295 15.3892H134.244V20.6818H130.715ZM134.167 12.0909C134.167 12.5682 134.229 12.9815 134.352 13.331C134.48 13.6761 134.659 13.9446 134.889 14.1364C135.124 14.3239 135.403 14.4176 135.727 14.4176C136.05 14.4176 136.325 14.326 136.551 14.1428C136.781 13.9553 136.956 13.6889 137.075 13.3438C137.199 12.9943 137.261 12.5767 137.261 12.0909C137.261 11.6051 137.199 11.1896 137.075 10.8445C136.956 10.495 136.781 10.2287 136.551 10.0455C136.325 9.85795 136.05 9.7642 135.727 9.7642C135.403 9.7642 135.124 9.85795 134.889 10.0455C134.659 10.2287 134.48 10.495 134.352 10.8445C134.229 11.1896 134.167 11.6051 134.167 12.0909ZM142.369 17V7.18182H145.796V9.0483H145.898C146.077 8.35795 146.36 7.85298 146.748 7.53338C147.14 7.21378 147.598 7.05398 148.122 7.05398C148.276 7.05398 148.427 7.06676 148.576 7.09233C148.73 7.11364 148.877 7.1456 149.017 7.18821V10.1989C148.843 10.1392 148.627 10.0945 148.372 10.0646C148.116 10.0348 147.896 10.0199 147.713 10.0199C147.368 10.0199 147.057 10.0987 146.78 10.2564C146.507 10.4098 146.292 10.6271 146.134 10.9084C145.977 11.1854 145.898 11.5114 145.898 11.8864V17H142.369ZM154.342 17.179C153.276 17.179 152.365 16.968 151.606 16.5462C150.847 16.12 150.266 15.5277 149.861 14.7692C149.456 14.0064 149.254 13.1222 149.254 12.1165C149.254 11.1108 149.456 10.2287 149.861 9.47017C150.266 8.70739 150.847 8.11506 151.606 7.69318C152.365 7.26705 153.276 7.05398 154.342 7.05398C155.407 7.05398 156.319 7.26705 157.078 7.69318C157.836 8.11506 158.418 8.70739 158.823 9.47017C159.227 10.2287 159.43 11.1108 159.43 12.1165C159.43 13.1222 159.227 14.0064 158.823 14.7692C158.418 15.5277 157.836 16.12 157.078 16.5462C156.319 16.968 155.407 17.179 154.342 17.179ZM154.367 14.571C154.666 14.571 154.923 14.4709 155.141 14.2706C155.358 14.0703 155.526 13.7848 155.646 13.4141C155.765 13.0433 155.825 12.6023 155.825 12.0909C155.825 11.5753 155.765 11.1342 155.646 10.7678C155.526 10.397 155.358 10.1115 155.141 9.91122C154.923 9.71094 154.666 9.6108 154.367 9.6108C154.052 9.6108 153.781 9.71094 153.556 9.91122C153.33 10.1115 153.157 10.397 153.038 10.7678C152.919 11.1342 152.859 11.5753 152.859 12.0909C152.859 12.6023 152.919 13.0433 153.038 13.4141C153.157 13.7848 153.33 14.0703 153.556 14.2706C153.781 14.4709 154.052 14.571 154.367 14.571ZM170.458 7.18182L167.159 17H163.069L159.77 7.18182H163.478L165.063 13.6761H165.165L166.75 7.18182H170.458ZM171.461 17V7.18182H174.99V17H171.461ZM173.225 6.15909C172.748 6.15909 172.339 6.00142 171.998 5.68608C171.657 5.37074 171.487 4.99148 171.487 4.5483C171.487 4.10511 171.657 3.72585 171.998 3.41051C172.339 3.09517 172.748 2.9375 173.225 2.9375C173.707 2.9375 174.116 3.09517 174.453 3.41051C174.794 3.72585 174.964 4.10511 174.964 4.5483C174.964 4.99148 174.794 5.37074 174.453 5.68608C174.116 6.00142 173.707 6.15909 173.225 6.15909ZM180.341 17.1278C179.643 17.1278 178.999 16.9446 178.411 16.5781C177.827 16.2116 177.358 15.6555 177.005 14.9098C176.655 14.1641 176.481 13.2244 176.481 12.0909C176.481 10.9062 176.664 9.94318 177.03 9.2017C177.401 8.46023 177.878 7.9169 178.462 7.57173C179.05 7.22656 179.668 7.05398 180.316 7.05398C180.802 7.05398 181.228 7.1392 181.594 7.30966C181.961 7.47585 182.268 7.69957 182.515 7.98082C182.762 8.25781 182.949 8.5625 183.077 8.89489H183.128V3.90909H186.657V17H183.154V15.3892H183.077C182.941 15.7216 182.745 16.0199 182.489 16.2841C182.238 16.544 181.931 16.7507 181.569 16.9041C181.211 17.0533 180.802 17.1278 180.341 17.1278ZM181.645 14.4176C181.969 14.4176 182.246 14.3239 182.476 14.1364C182.711 13.9446 182.89 13.6761 183.013 13.331C183.141 12.9815 183.205 12.5682 183.205 12.0909C183.205 11.6051 183.141 11.1896 183.013 10.8445C182.89 10.495 182.711 10.2287 182.476 10.0455C182.246 9.85795 181.969 9.7642 181.645 9.7642C181.322 9.7642 181.045 9.85795 180.814 10.0455C180.589 10.2287 180.414 10.495 180.29 10.8445C180.171 11.1896 180.111 11.6051 180.111 12.0909C180.111 12.5767 180.171 12.9943 180.29 13.3438C180.414 13.6889 180.589 13.9553 180.814 14.1428C181.045 14.326 181.322 14.4176 181.645 14.4176ZM193.094 17.179C192.045 17.179 191.142 16.9787 190.383 16.5781C189.629 16.1733 189.047 15.5937 188.638 14.8395C188.233 14.081 188.031 13.1733 188.031 12.1165C188.031 11.1023 188.236 10.2159 188.645 9.45739C189.054 8.69886 189.631 8.10866 190.377 7.68679C191.123 7.26491 192.003 7.05398 193.017 7.05398C193.758 7.05398 194.43 7.16903 195.03 7.39915C195.631 7.62926 196.145 7.96378 196.571 8.4027C196.997 8.83736 197.325 9.36577 197.555 9.98793C197.785 10.6101 197.9 11.3111 197.9 12.0909V12.9091H189.131V10.9659H194.653C194.649 10.6847 194.577 10.4375 194.436 10.2244C194.3 10.0071 194.114 9.83878 193.88 9.71946C193.65 9.59588 193.388 9.53409 193.094 9.53409C192.808 9.53409 192.546 9.59588 192.307 9.71946C192.069 9.83878 191.877 10.005 191.732 10.218C191.591 10.4311 191.517 10.6804 191.508 10.9659V13.0625C191.508 13.3778 191.574 13.6591 191.706 13.9062C191.839 14.1534 192.028 14.3473 192.275 14.4879C192.523 14.6286 192.821 14.6989 193.17 14.6989C193.413 14.6989 193.635 14.6648 193.835 14.5966C194.04 14.5284 194.214 14.4304 194.359 14.3026C194.504 14.1705 194.611 14.0128 194.679 13.8295H197.9C197.79 14.5114 197.528 15.1037 197.114 15.6065C196.701 16.1051 196.153 16.4929 195.471 16.7699C194.794 17.0426 194.001 17.179 193.094 17.179ZM199.34 17V7.18182H202.766V9.0483H202.869C203.048 8.35795 203.331 7.85298 203.719 7.53338C204.111 7.21378 204.569 7.05398 205.093 7.05398C205.246 7.05398 205.398 7.06676 205.547 7.09233C205.7 7.11364 205.847 7.1456 205.988 7.18821V10.1989C205.813 10.1392 205.598 10.0945 205.342 10.0646C205.087 10.0348 204.867 10.0199 204.684 10.0199C204.339 10.0199 204.028 10.0987 203.751 10.2564C203.478 10.4098 203.263 10.6271 203.105 10.9084C202.947 11.1854 202.869 11.5114 202.869 11.8864V17H199.34ZM216.119 10.3778H212.872C212.855 10.1776 212.785 10.005 212.661 9.86009C212.538 9.7152 212.378 9.6044 212.182 9.5277C211.99 9.44673 211.777 9.40625 211.543 9.40625C211.24 9.40625 210.98 9.46165 210.763 9.57244C210.545 9.68324 210.439 9.84091 210.443 10.0455C210.439 10.1903 210.501 10.3246 210.629 10.4482C210.761 10.5717 211.014 10.6676 211.389 10.7358L213.384 11.0938C214.389 11.277 215.137 11.5859 215.627 12.0206C216.121 12.451 216.371 13.0284 216.375 13.7528C216.371 14.4517 216.162 15.0589 215.749 15.5746C215.339 16.0859 214.779 16.4822 214.067 16.7635C213.36 17.0405 212.553 17.179 211.645 17.179C210.145 17.179 208.971 16.8722 208.123 16.2585C207.279 15.6449 206.808 14.8352 206.71 13.8295H210.213C210.26 14.1406 210.413 14.3814 210.673 14.5518C210.938 14.718 211.27 14.8011 211.67 14.8011C211.994 14.8011 212.261 14.7457 212.469 14.6349C212.683 14.5241 212.791 14.3665 212.795 14.1619C212.791 13.9744 212.697 13.8253 212.514 13.7145C212.335 13.6037 212.054 13.5142 211.67 13.446L209.932 13.1392C208.93 12.9645 208.18 12.6321 207.682 12.142C207.183 11.652 206.936 11.0213 206.94 10.25C206.936 9.56818 207.115 8.99077 207.477 8.51776C207.844 8.04048 208.366 7.67827 209.043 7.43111C209.725 7.17969 210.533 7.05398 211.466 7.05398C212.885 7.05398 214.004 7.34801 214.822 7.93608C215.644 8.52415 216.077 9.33807 216.119 10.3778Z" fill="white"/>
<path d="M53.15 26.8892V27.6705H50.1387V26.8892H53.15ZM50.3375 24.5455V30H49.4995V24.5455H50.3375ZM53.7892 24.5455V30H52.9512V24.5455H53.7892ZM56.9249 30.1278C56.5792 30.1278 56.2656 30.0627 55.9838 29.9325C55.7021 29.8 55.4784 29.6094 55.3127 29.3608C55.147 29.1098 55.0641 28.8068 55.0641 28.4517C55.0641 28.1392 55.1257 27.8859 55.2488 27.6918C55.3719 27.4953 55.5364 27.3414 55.7424 27.2301C55.9483 27.1188 56.1756 27.036 56.4242 26.9815C56.6751 26.9247 56.9273 26.8797 57.1806 26.8466C57.512 26.804 57.7807 26.772 57.9867 26.7507C58.195 26.727 58.3465 26.688 58.4412 26.6335C58.5383 26.5791 58.5868 26.4844 58.5868 26.3494V26.321C58.5868 25.9706 58.4909 25.6984 58.2992 25.5043C58.1098 25.3101 57.8221 25.2131 57.4363 25.2131C57.0362 25.2131 56.7225 25.3007 56.4952 25.4759C56.2679 25.651 56.1081 25.8381 56.0158 26.0369L55.2203 25.7528C55.3624 25.4214 55.5518 25.1634 55.7885 24.9787C56.0276 24.7917 56.2881 24.6615 56.5698 24.5881C56.8539 24.5123 57.1332 24.4744 57.4078 24.4744C57.583 24.4744 57.7843 24.4957 58.0115 24.5384C58.2412 24.5786 58.4625 24.6626 58.6756 24.7905C58.891 24.9183 59.0698 25.1113 59.2118 25.3693C59.3539 25.6274 59.4249 25.973 59.4249 26.4062V30H58.5868V29.2614H58.5442C58.4874 29.3797 58.3927 29.5064 58.2601 29.6413C58.1275 29.7763 57.9512 29.8911 57.731 29.9858C57.5108 30.0805 57.2421 30.1278 56.9249 30.1278ZM57.0527 29.375C57.3842 29.375 57.6635 29.3099 57.8908 29.1797C58.1204 29.0495 58.2933 28.8814 58.4093 28.6754C58.5276 28.4695 58.5868 28.2528 58.5868 28.0256V27.2585C58.5513 27.3011 58.4732 27.3402 58.3525 27.3757C58.2341 27.4089 58.0968 27.4384 57.9405 27.4645C57.7866 27.4882 57.6363 27.5095 57.4895 27.5284C57.3451 27.545 57.2279 27.5592 57.138 27.571C56.9202 27.5994 56.7166 27.6456 56.5272 27.7095C56.3401 27.7711 56.1886 27.8646 56.0726 27.9901C55.959 28.1132 55.9022 28.2812 55.9022 28.4943C55.9022 28.7855 56.0099 29.0057 56.2253 29.1548C56.4431 29.3016 56.7189 29.375 57.0527 29.375ZM61.7926 28.7642L64.4205 24.5455H65.3864V30H64.5483V25.7812L61.9347 30H60.9545V24.5455H61.7926V28.7642ZM63.8665 22.7273H64.6477C64.6477 23.1108 64.5152 23.4245 64.25 23.6683C63.9848 23.9122 63.625 24.0341 63.1705 24.0341C62.723 24.0341 62.3667 23.9122 62.1016 23.6683C61.8388 23.4245 61.7074 23.1108 61.7074 22.7273H62.4886C62.4886 22.9119 62.5395 23.0741 62.6413 23.2138C62.7455 23.3535 62.9219 23.4233 63.1705 23.4233C63.419 23.4233 63.5966 23.3535 63.7031 23.2138C63.812 23.0741 63.8665 22.9119 63.8665 22.7273ZM66.339 31.5625V29.2188H66.7935C66.9048 29.1027 67.0007 28.9773 67.0811 28.8423C67.1616 28.7074 67.2315 28.5476 67.2907 28.3629C67.3522 28.1759 67.4043 27.9486 67.4469 27.6811C67.4895 27.4112 67.5274 27.0857 67.5605 26.7045L67.7452 24.5455H71.2111V29.2188H72.0492V31.5625H71.2111V30H67.177V31.5625H66.339ZM67.7452 29.2188H70.373V25.3267H68.5265L68.3844 26.7045C68.3252 27.2751 68.2518 27.7734 68.1642 28.1996C68.0766 28.6257 67.937 28.9654 67.7452 29.2188ZM73.9996 28.7642L76.6275 24.5455H77.5934V30H76.7553V25.7812L74.1417 30H73.1616V24.5455H73.9996V28.7642ZM81.4579 30V29.2188H81.6568C81.8201 29.2188 81.9563 29.1868 82.0652 29.1229C82.1741 29.0566 82.2617 28.9418 82.3279 28.7784C82.3966 28.6127 82.4487 28.383 82.4842 28.0895C82.5221 27.7936 82.5493 27.4171 82.5659 26.9602L82.6653 24.5455H86.3017V30H85.4636V25.3267H83.4608L83.3755 27.2727C83.3566 27.7202 83.3163 28.1143 83.2548 28.4553C83.1956 28.7938 83.1045 29.0779 82.9814 29.3075C82.8606 29.5372 82.6996 29.71 82.4984 29.826C82.2972 29.942 82.045 30 81.742 30H81.4579ZM88.1838 32.0455C88.0417 32.0455 87.9151 32.0336 87.8038 32.0099C87.6925 31.9886 87.6156 31.9673 87.573 31.946L87.786 31.2074C87.9896 31.2595 88.1696 31.2784 88.3258 31.2642C88.4821 31.25 88.6206 31.1802 88.7413 31.0547C88.8644 30.9316 88.9769 30.7315 89.0787 30.4545L89.2349 30.0284L87.2179 24.5455H88.127L89.6326 28.892H89.6895L91.1951 24.5455H92.1042L89.7889 30.7955C89.6847 31.0772 89.5557 31.3104 89.4018 31.495C89.2479 31.6821 89.0692 31.8205 88.8656 31.9105C88.6644 32.0005 88.4371 32.0455 88.1838 32.0455ZM97.2489 24.5455V30H96.4109V24.5455H97.2489ZM96.9222 27.1449V27.9261C96.7328 27.9972 96.5446 28.0599 96.3576 28.1143C96.1706 28.1664 95.9741 28.2079 95.7681 28.2386C95.5621 28.267 95.3361 28.2812 95.0898 28.2812C94.4719 28.2812 93.976 28.1143 93.6019 27.7805C93.2302 27.4467 93.0444 26.946 93.0444 26.2784V24.5312H93.8825V26.2784C93.8825 26.5578 93.9357 26.7874 94.0423 26.9673C94.1488 27.1473 94.2932 27.281 94.4755 27.3686C94.6578 27.4562 94.8626 27.5 95.0898 27.5C95.445 27.5 95.7657 27.468 96.0522 27.4041C96.341 27.3378 96.631 27.2514 96.9222 27.1449ZM98.7866 24.5455H99.6246V29.2188H101.684V24.5455H102.522V29.2188H104.582V24.5455H105.42V30H98.7866V24.5455ZM109.238 30.1136C108.712 30.1136 108.259 29.9976 107.877 29.7656C107.499 29.5312 107.206 29.2045 107 28.7855C106.797 28.3641 106.695 27.8741 106.695 27.3153C106.695 26.7566 106.797 26.2642 107 25.8381C107.206 25.4096 107.493 25.0758 107.86 24.8366C108.229 24.5952 108.66 24.4744 109.152 24.4744C109.436 24.4744 109.717 24.5218 109.994 24.6165C110.271 24.7112 110.523 24.8651 110.75 25.0781C110.978 25.2888 111.159 25.5682 111.294 25.9162C111.429 26.2642 111.496 26.6927 111.496 27.2017V27.5568H107.292V26.8324H110.644C110.644 26.5246 110.582 26.25 110.459 26.0085C110.338 25.767 110.166 25.5765 109.941 25.4368C109.718 25.2971 109.455 25.2273 109.152 25.2273C108.819 25.2273 108.53 25.3101 108.286 25.4759C108.044 25.6392 107.859 25.8523 107.728 26.1151C107.598 26.3778 107.533 26.6596 107.533 26.9602V27.4432C107.533 27.8551 107.604 28.2043 107.746 28.4908C107.891 28.7749 108.091 28.9915 108.346 29.1406C108.602 29.2874 108.899 29.3608 109.238 29.3608C109.458 29.3608 109.657 29.33 109.834 29.2685C110.014 29.2045 110.169 29.1098 110.299 28.9844C110.43 28.8565 110.53 28.6979 110.601 28.5085L111.411 28.7358C111.326 29.0104 111.182 29.2519 110.981 29.4602C110.78 29.6662 110.531 29.8272 110.235 29.9432C109.94 30.0568 109.607 30.1136 109.238 30.1136ZM116.137 24.5455V25.3267H113.609V30H112.771V24.5455H116.137ZM119.294 30.1136C118.801 30.1136 118.369 29.9964 117.997 29.7621C117.628 29.5277 117.339 29.1998 117.131 28.7784C116.925 28.357 116.822 27.8646 116.822 27.3011C116.822 26.733 116.925 26.237 117.131 25.8132C117.339 25.3894 117.628 25.0604 117.997 24.826C118.369 24.5916 118.801 24.4744 119.294 24.4744C119.786 24.4744 120.217 24.5916 120.586 24.826C120.958 25.0604 121.247 25.3894 121.453 25.8132C121.661 26.237 121.765 26.733 121.765 27.3011C121.765 27.8646 121.661 28.357 121.453 28.7784C121.247 29.1998 120.958 29.5277 120.586 29.7621C120.217 29.9964 119.786 30.1136 119.294 30.1136ZM119.294 29.3608C119.668 29.3608 119.975 29.2649 120.217 29.0732C120.458 28.8814 120.637 28.6293 120.753 28.3168C120.869 28.0043 120.927 27.6657 120.927 27.3011C120.927 26.9366 120.869 26.5968 120.753 26.282C120.637 25.9671 120.458 25.7126 120.217 25.5185C119.975 25.3243 119.668 25.2273 119.294 25.2273C118.919 25.2273 118.612 25.3243 118.37 25.5185C118.129 25.7126 117.95 25.9671 117.834 26.282C117.718 26.5968 117.66 26.9366 117.66 27.3011C117.66 27.6657 117.718 28.0043 117.834 28.3168C117.95 28.6293 118.129 28.8814 118.37 29.0732C118.612 29.2649 118.919 29.3608 119.294 29.3608ZM125.857 30V24.5455H130.147V30H129.309V25.3267H126.695V30H125.857ZM131.677 32.0455V24.5455H132.487V25.4119H132.586C132.648 25.3172 132.733 25.1965 132.842 25.0497C132.953 24.9006 133.112 24.768 133.318 24.652C133.526 24.5336 133.808 24.4744 134.163 24.4744C134.622 24.4744 135.027 24.5893 135.377 24.8189C135.728 25.0485 136.001 25.3741 136.198 25.7955C136.394 26.2169 136.493 26.714 136.493 27.2869C136.493 27.8646 136.394 28.3653 136.198 28.7891C136.001 29.2105 135.729 29.5372 135.381 29.7692C135.033 29.9988 134.632 30.1136 134.177 30.1136C133.827 30.1136 133.546 30.0556 133.336 29.9396C133.125 29.8213 132.963 29.6875 132.849 29.5384C132.735 29.3868 132.648 29.2614 132.586 29.1619H132.515V32.0455H131.677ZM132.501 27.2727C132.501 27.6847 132.561 28.0481 132.682 28.3629C132.803 28.6754 132.979 28.9205 133.211 29.098C133.443 29.2732 133.727 29.3608 134.064 29.3608C134.414 29.3608 134.706 29.2685 134.941 29.0838C135.177 28.8968 135.355 28.6458 135.473 28.331C135.594 28.0137 135.654 27.661 135.654 27.2727C135.654 26.8892 135.595 26.5436 135.477 26.2358C135.361 25.9257 135.185 25.6806 134.948 25.5007C134.713 25.3184 134.419 25.2273 134.064 25.2273C133.723 25.2273 133.436 25.3137 133.204 25.4865C132.972 25.657 132.797 25.8961 132.679 26.2038C132.56 26.5092 132.501 26.8655 132.501 27.2727ZM139.987 30.1136C139.494 30.1136 139.062 29.9964 138.691 29.7621C138.321 29.5277 138.033 29.1998 137.824 28.7784C137.618 28.357 137.515 27.8646 137.515 27.3011C137.515 26.733 137.618 26.237 137.824 25.8132C138.033 25.3894 138.321 25.0604 138.691 24.826C139.062 24.5916 139.494 24.4744 139.987 24.4744C140.479 24.4744 140.91 24.5916 141.279 24.826C141.651 25.0604 141.94 25.3894 142.146 25.8132C142.354 26.237 142.458 26.733 142.458 27.3011C142.458 27.8646 142.354 28.357 142.146 28.7784C141.94 29.1998 141.651 29.5277 141.279 29.7621C140.91 29.9964 140.479 30.1136 139.987 30.1136ZM139.987 29.3608C140.361 29.3608 140.669 29.2649 140.91 29.0732C141.152 28.8814 141.33 28.6293 141.446 28.3168C141.562 28.0043 141.62 27.6657 141.62 27.3011C141.62 26.9366 141.562 26.5968 141.446 26.282C141.33 25.9671 141.152 25.7126 140.91 25.5185C140.669 25.3243 140.361 25.2273 139.987 25.2273C139.613 25.2273 139.305 25.3243 139.064 25.5185C138.822 25.7126 138.643 25.9671 138.527 26.282C138.411 26.5968 138.353 26.9366 138.353 27.3011C138.353 27.6657 138.411 28.0043 138.527 28.3168C138.643 28.6293 138.822 28.8814 139.064 29.0732C139.305 29.2649 139.613 29.3608 139.987 29.3608ZM143.738 30V24.5455H145.968C146.555 24.5455 147.021 24.678 147.367 24.9432C147.713 25.2083 147.885 25.5587 147.885 25.9943C147.885 26.3258 147.787 26.5826 147.591 26.7649C147.394 26.9448 147.142 27.0668 146.834 27.1307C147.036 27.1591 147.231 27.2301 147.42 27.3438C147.612 27.4574 147.771 27.6136 147.896 27.8125C148.022 28.009 148.084 28.2505 148.084 28.5369C148.084 28.8163 148.013 29.0661 147.871 29.2862C147.729 29.5064 147.526 29.6804 147.26 29.8082C146.995 29.9361 146.678 30 146.309 30H143.738ZM144.533 29.233H146.309C146.598 29.233 146.824 29.1643 146.987 29.027C147.15 28.8897 147.232 28.7027 147.232 28.4659C147.232 28.1842 147.15 27.9628 146.987 27.8018C146.824 27.6385 146.598 27.5568 146.309 27.5568H144.533V29.233ZM144.533 26.8324H145.968C146.193 26.8324 146.386 26.8016 146.547 26.7401C146.708 26.6761 146.831 26.5862 146.916 26.4702C147.004 26.3518 147.047 26.2121 147.047 26.0511C147.047 25.8215 146.952 25.6416 146.76 25.5114C146.568 25.3788 146.304 25.3125 145.968 25.3125H144.533V26.8324ZM150.958 30.1278C150.612 30.1278 150.299 30.0627 150.017 29.9325C149.735 29.8 149.512 29.6094 149.346 29.3608C149.18 29.1098 149.097 28.8068 149.097 28.4517C149.097 28.1392 149.159 27.8859 149.282 27.6918C149.405 27.4953 149.57 27.3414 149.776 27.2301C149.982 27.1188 150.209 27.036 150.457 26.9815C150.708 26.9247 150.96 26.8797 151.214 26.8466C151.545 26.804 151.814 26.772 152.02 26.7507C152.228 26.727 152.38 26.688 152.474 26.6335C152.571 26.5791 152.62 26.4844 152.62 26.3494V26.321C152.62 25.9706 152.524 25.6984 152.332 25.5043C152.143 25.3101 151.855 25.2131 151.469 25.2131C151.069 25.2131 150.756 25.3007 150.528 25.4759C150.301 25.651 150.141 25.8381 150.049 26.0369L149.254 25.7528C149.396 25.4214 149.585 25.1634 149.822 24.9787C150.061 24.7917 150.321 24.6615 150.603 24.5881C150.887 24.5123 151.166 24.4744 151.441 24.4744C151.616 24.4744 151.817 24.4957 152.045 24.5384C152.274 24.5786 152.496 24.6626 152.709 24.7905C152.924 24.9183 153.103 25.1113 153.245 25.3693C153.387 25.6274 153.458 25.973 153.458 26.4062V30H152.62V29.2614H152.577C152.521 29.3797 152.426 29.5064 152.293 29.6413C152.161 29.7763 151.984 29.8911 151.764 29.9858C151.544 30.0805 151.275 30.1278 150.958 30.1278ZM151.086 29.375C151.417 29.375 151.697 29.3099 151.924 29.1797C152.154 29.0495 152.326 28.8814 152.442 28.6754C152.561 28.4695 152.62 28.2528 152.62 28.0256V27.2585C152.585 27.3011 152.506 27.3402 152.386 27.3757C152.267 27.4089 152.13 27.4384 151.974 27.4645C151.82 27.4882 151.67 27.5095 151.523 27.5284C151.378 27.545 151.261 27.5592 151.171 27.571C150.953 27.5994 150.75 27.6456 150.56 27.7095C150.373 27.7711 150.222 27.8646 150.106 27.9901C149.992 28.1132 149.935 28.2812 149.935 28.4943C149.935 28.7855 150.043 29.0057 150.259 29.1548C150.476 29.3016 150.752 29.375 151.086 29.375ZM155.826 28.7642L158.454 24.5455H159.42V30H158.581V25.7812L155.968 30H154.988V24.5455H155.826V28.7642ZM157.9 22.7273H158.681C158.681 23.1108 158.548 23.4245 158.283 23.6683C158.018 23.9122 157.658 24.0341 157.204 24.0341C156.756 24.0341 156.4 23.9122 156.135 23.6683C155.872 23.4245 155.741 23.1108 155.741 22.7273H156.522C156.522 22.9119 156.573 23.0741 156.675 23.2138C156.779 23.3535 156.955 23.4233 157.204 23.4233C157.452 23.4233 157.63 23.3535 157.736 23.2138C157.845 23.0741 157.9 22.9119 157.9 22.7273ZM160.372 31.5625V29.2188H160.827C160.938 29.1027 161.034 28.9773 161.114 28.8423C161.195 28.7074 161.265 28.5476 161.324 28.3629C161.385 28.1759 161.438 27.9486 161.48 27.6811C161.523 27.4112 161.561 27.0857 161.594 26.7045L161.778 24.5455H165.244V29.2188H166.082V31.5625H165.244V30H161.21V31.5625H160.372ZM161.778 29.2188H164.406V25.3267H162.56L162.418 26.7045C162.358 27.2751 162.285 27.7734 162.197 28.1996C162.11 28.6257 161.97 28.9654 161.778 29.2188ZM169.482 30.1136C168.956 30.1136 168.503 29.9976 168.122 29.7656C167.743 29.5312 167.45 29.2045 167.244 28.7855C167.041 28.3641 166.939 27.8741 166.939 27.3153C166.939 26.7566 167.041 26.2642 167.244 25.8381C167.45 25.4096 167.737 25.0758 168.104 24.8366C168.473 24.5952 168.904 24.4744 169.396 24.4744C169.681 24.4744 169.961 24.5218 170.238 24.6165C170.515 24.7112 170.767 24.8651 170.994 25.0781C171.222 25.2888 171.403 25.5682 171.538 25.9162C171.673 26.2642 171.74 26.6927 171.74 27.2017V27.5568H167.536V26.8324H170.888C170.888 26.5246 170.826 26.25 170.703 26.0085C170.583 25.767 170.41 25.5765 170.185 25.4368C169.962 25.2971 169.7 25.2273 169.396 25.2273C169.063 25.2273 168.774 25.3101 168.53 25.4759C168.289 25.6392 168.103 25.8523 167.972 26.1151C167.842 26.3778 167.777 26.6596 167.777 26.9602V27.4432C167.777 27.8551 167.848 28.2043 167.99 28.4908C168.135 28.7749 168.335 28.9915 168.59 29.1406C168.846 29.2874 169.143 29.3608 169.482 29.3608C169.702 29.3608 169.901 29.33 170.078 29.2685C170.258 29.2045 170.413 29.1098 170.544 28.9844C170.674 28.8565 170.774 28.6979 170.845 28.5085L171.655 28.7358C171.57 29.0104 171.427 29.2519 171.225 29.4602C171.024 29.6662 170.776 29.8272 170.48 29.9432C170.184 30.0568 169.851 30.1136 169.482 30.1136ZM173.015 32.0455V24.5455H173.825V25.4119H173.924C173.986 25.3172 174.071 25.1965 174.18 25.0497C174.291 24.9006 174.45 24.768 174.656 24.652C174.864 24.5336 175.146 24.4744 175.501 24.4744C175.96 24.4744 176.365 24.5893 176.715 24.8189C177.066 25.0485 177.339 25.3741 177.536 25.7955C177.732 26.2169 177.83 26.714 177.83 27.2869C177.83 27.8646 177.732 28.3653 177.536 28.7891C177.339 29.2105 177.067 29.5372 176.719 29.7692C176.371 29.9988 175.97 30.1136 175.515 30.1136C175.165 30.1136 174.884 30.0556 174.673 29.9396C174.463 29.8213 174.301 29.6875 174.187 29.5384C174.073 29.3868 173.986 29.2614 173.924 29.1619H173.853V32.0455H173.015ZM173.839 27.2727C173.839 27.6847 173.899 28.0481 174.02 28.3629C174.141 28.6754 174.317 28.9205 174.549 29.098C174.781 29.2732 175.065 29.3608 175.401 29.3608C175.752 29.3608 176.044 29.2685 176.279 29.0838C176.515 28.8968 176.693 28.6458 176.811 28.331C176.932 28.0137 176.992 27.661 176.992 27.2727C176.992 26.8892 176.933 26.5436 176.815 26.2358C176.699 25.9257 176.522 25.6806 176.286 25.5007C176.051 25.3184 175.757 25.2273 175.401 25.2273C175.061 25.2273 174.774 25.3137 174.542 25.4865C174.31 25.657 174.135 25.8961 174.017 26.2038C173.898 26.5092 173.839 26.8655 173.839 27.2727ZM180.714 30.1278C180.368 30.1278 180.055 30.0627 179.773 29.9325C179.491 29.8 179.267 29.6094 179.102 29.3608C178.936 29.1098 178.853 28.8068 178.853 28.4517C178.853 28.1392 178.915 27.8859 179.038 27.6918C179.161 27.4953 179.325 27.3414 179.531 27.2301C179.737 27.1188 179.965 27.036 180.213 26.9815C180.464 26.9247 180.716 26.8797 180.97 26.8466C181.301 26.804 181.57 26.772 181.776 26.7507C181.984 26.727 182.136 26.688 182.23 26.6335C182.327 26.5791 182.376 26.4844 182.376 26.3494V26.321C182.376 25.9706 182.28 25.6984 182.088 25.5043C181.899 25.3101 181.611 25.2131 181.225 25.2131C180.825 25.2131 180.512 25.3007 180.284 25.4759C180.057 25.651 179.897 25.8381 179.805 26.0369L179.009 25.7528C179.151 25.4214 179.341 25.1634 179.578 24.9787C179.817 24.7917 180.077 24.6615 180.359 24.5881C180.643 24.5123 180.922 24.4744 181.197 24.4744C181.372 24.4744 181.573 24.4957 181.801 24.5384C182.03 24.5786 182.252 24.6626 182.465 24.7905C182.68 24.9183 182.859 25.1113 183.001 25.3693C183.143 25.6274 183.214 25.973 183.214 26.4062V30H182.376V29.2614H182.333C182.276 29.3797 182.182 29.5064 182.049 29.6413C181.917 29.7763 181.74 29.8911 181.52 29.9858C181.3 30.0805 181.031 30.1278 180.714 30.1278ZM180.842 29.375C181.173 29.375 181.453 29.3099 181.68 29.1797C181.91 29.0495 182.082 28.8814 182.198 28.6754C182.317 28.4695 182.376 28.2528 182.376 28.0256V27.2585C182.34 27.3011 182.262 27.3402 182.142 27.3757C182.023 27.4089 181.886 27.4384 181.73 27.4645C181.576 27.4882 181.425 27.5095 181.279 27.5284C181.134 27.545 181.017 27.5592 180.927 27.571C180.709 27.5994 180.506 27.6456 180.316 27.7095C180.129 27.7711 179.978 27.8646 179.862 27.9901C179.748 28.1132 179.691 28.2812 179.691 28.4943C179.691 28.7855 179.799 29.0057 180.014 29.1548C180.232 29.3016 180.508 29.375 180.842 29.375Z" fill="white"/>
<g style="mix-blend-mode:hard-light" opacity="0.3">
<circle cx="27.7334" cy="16" r="16" transform="rotate(-90 27.7334 16)" fill="white"/>
</g>
<g style="mix-blend-mode:hard-light" opacity="0.3">
<circle cx="15.9999" cy="16" r="10.6667" transform="rotate(-90 15.9999 16)" fill="white"/>
</g>
<g style="mix-blend-mode:hard-light" opacity="0.3">
<circle cx="5.33333" cy="16" r="5.33333" transform="rotate(-90 5.33333 16)" fill="white"/>
</g>
</svg>
