<svg width="252" height="37" viewBox="0 0 252 37" fill="none" xmlns="http://www.w3.org/2000/svg">
<rect width="252" height="37" fill="#EBEBEB"/>
<path d="M57.7466 19V7.64773H61.8263V19H57.7466ZM59.7865 6.4652C59.2346 6.4652 58.7616 6.28289 58.3675 5.91828C57.9733 5.55367 57.7762 5.11515 57.7762 4.60272C57.7762 4.09029 57.9733 3.65177 58.3675 3.28715C58.7616 2.92254 59.2346 2.74023 59.7865 2.74023C60.3433 2.74023 60.8163 2.92254 61.2055 3.28715C61.5997 3.65177 61.7968 4.09029 61.7968 4.60272C61.7968 5.11515 61.5997 5.55367 61.2055 5.91828C60.8163 6.28289 60.3433 6.4652 59.7865 6.4652ZM67.9847 12.6143V19H63.905V7.64773H67.7778V9.80584H67.896C68.1424 9.08647 68.576 8.52231 69.1968 8.11335C69.8226 7.70439 70.5518 7.49991 71.3845 7.49991C72.1876 7.49991 72.8848 7.68468 73.4761 8.05422C74.0723 8.41883 74.533 8.92141 74.8582 9.56194C75.1883 10.2025 75.3509 10.9342 75.346 11.757V19H71.2663V12.6143C71.2712 12.0526 71.1283 11.6117 70.8376 11.2914C70.5518 10.9711 70.1527 10.811 69.6403 10.811C69.3052 10.811 69.0121 10.8849 68.7608 11.0327C68.5144 11.1756 68.3247 11.3825 68.1917 11.6535C68.0586 11.9196 67.9897 12.2399 67.9847 12.6143ZM84.1299 7.64773V10.604H76.6505V7.64773H84.1299ZM78.099 4.92791H82.1788V15.3489C82.1788 15.5066 82.2059 15.6396 82.2601 15.748C82.3143 15.8515 82.398 15.9304 82.5114 15.9846C82.6247 16.0338 82.77 16.0585 82.9474 16.0585C83.0706 16.0585 83.2135 16.0437 83.3761 16.0141C83.5436 15.9846 83.6668 15.9599 83.7456 15.9402L84.3369 18.8078C84.1546 18.862 83.8934 18.9286 83.5535 19.0074C83.2184 19.0862 82.8193 19.138 82.3562 19.1626C81.42 19.2119 80.6341 19.1158 79.9985 18.8744C79.3629 18.628 78.8849 18.2412 78.5647 17.714C78.2444 17.1868 78.0892 16.5265 78.099 15.7333V4.92791ZM91.1124 19.2069C89.9003 19.2069 88.8557 18.9754 87.9787 18.5122C87.1066 18.0441 86.434 17.374 85.961 16.5019C85.4929 15.6249 85.2589 14.5754 85.2589 13.3534C85.2589 12.1808 85.4954 11.1559 85.9684 10.2789C86.4414 9.40181 87.1091 8.71939 87.9713 8.2316C88.8336 7.74381 89.851 7.49991 91.0237 7.49991C91.881 7.49991 92.6571 7.63295 93.3518 7.89901C94.0466 8.16508 94.6403 8.55187 95.133 9.05937C95.6257 9.56195 96.0051 10.1729 96.2712 10.8923C96.5373 11.6117 96.6703 12.4222 96.6703 13.3239V14.2699H86.5301V12.0231H92.9158C92.9108 11.6979 92.8271 11.4121 92.6645 11.1657C92.5068 10.9145 92.2925 10.7198 92.0215 10.5819C91.7554 10.439 91.4524 10.3675 91.1124 10.3675C90.7823 10.3675 90.4793 10.439 90.2033 10.5819C89.9274 10.7198 89.7057 10.912 89.5382 11.1584C89.3756 11.4047 89.2893 11.693 89.2795 12.0231V14.4473C89.2795 14.8119 89.3559 15.1371 89.5086 15.4229C89.6613 15.7086 89.8806 15.9328 90.1664 16.0954C90.4522 16.258 90.7971 16.3393 91.2011 16.3393C91.4819 16.3393 91.7382 16.2999 91.9697 16.2211C92.2062 16.1422 92.4083 16.0289 92.5758 15.8811C92.7433 15.7283 92.8665 15.546 92.9453 15.3342H96.6703C96.5422 16.1225 96.2392 16.8074 95.7612 17.3888C95.2833 17.9653 94.6501 18.4137 93.8618 18.7339C93.0784 19.0493 92.1619 19.2069 91.1124 19.2069ZM98.3351 19V7.64773H102.297V9.80584H102.415C102.622 9.00763 102.949 8.42376 103.398 8.05422C103.851 7.68468 104.381 7.49991 104.987 7.49991C105.164 7.49991 105.339 7.51469 105.512 7.54426C105.689 7.56889 105.859 7.60585 106.022 7.65512V11.1362C105.819 11.0672 105.571 11.0155 105.275 10.981C104.979 10.9465 104.726 10.9292 104.514 10.9292C104.115 10.9292 103.755 11.0204 103.435 11.2027C103.119 11.3801 102.871 11.6314 102.688 11.9566C102.506 12.2768 102.415 12.6538 102.415 13.0874V19H98.3351ZM111.439 12.6143V19H107.359V7.64773H111.232V9.80584H111.35C111.597 9.08647 112.03 8.52231 112.651 8.11335C113.277 7.70439 114.006 7.49991 114.839 7.49991C115.642 7.49991 116.339 7.68468 116.93 8.05422C117.527 8.41883 117.987 8.92141 118.312 9.56194C118.643 10.2025 118.805 10.9342 118.8 11.757V19H114.72V12.6143C114.725 12.0526 114.583 11.6117 114.292 11.2914C114.006 10.9711 113.607 10.811 113.094 10.811C112.759 10.811 112.466 10.8849 112.215 11.0327C111.969 11.1756 111.779 11.3825 111.646 11.6535C111.513 11.9196 111.444 12.2399 111.439 12.6143ZM126.254 19.2069C125.042 19.2069 123.997 18.9754 123.12 18.5122C122.248 18.0441 121.575 17.374 121.102 16.5019C120.634 15.6249 120.4 14.5754 120.4 13.3534C120.4 12.1808 120.637 11.1559 121.11 10.2789C121.583 9.40181 122.25 8.71939 123.113 8.2316C123.975 7.74381 124.992 7.49991 126.165 7.49991C127.022 7.49991 127.799 7.63295 128.493 7.89901C129.188 8.16508 129.782 8.55187 130.274 9.05937C130.767 9.56195 131.147 10.1729 131.413 10.8923C131.679 11.6117 131.812 12.4222 131.812 13.3239V14.2699H121.672V12.0231H128.057C128.052 11.6979 127.968 11.4121 127.806 11.1657C127.648 10.9145 127.434 10.7198 127.163 10.5819C126.897 10.439 126.594 10.3675 126.254 10.3675C125.924 10.3675 125.621 10.439 125.345 10.5819C125.069 10.7198 124.847 10.912 124.68 11.1584C124.517 11.4047 124.431 11.693 124.421 12.0231V14.4473C124.421 14.8119 124.497 15.1371 124.65 15.4229C124.803 15.7086 125.022 15.9328 125.308 16.0954C125.594 16.258 125.938 16.3393 126.343 16.3393C126.623 16.3393 126.88 16.2999 127.111 16.2211C127.348 16.1422 127.55 16.0289 127.717 15.8811C127.885 15.7283 128.008 15.546 128.087 15.3342H131.812C131.684 16.1225 131.381 16.8074 130.903 17.3888C130.425 17.9653 129.792 18.4137 129.003 18.7339C128.22 19.0493 127.303 19.2069 126.254 19.2069ZM140.246 7.64773V10.604H132.767V7.64773H140.246ZM134.216 4.92791H138.295V15.3489C138.295 15.5066 138.322 15.6396 138.377 15.748C138.431 15.8515 138.515 15.9304 138.628 15.9846C138.741 16.0338 138.887 16.0585 139.064 16.0585C139.187 16.0585 139.33 16.0437 139.493 16.0141C139.66 15.9846 139.783 15.9599 139.862 15.9402L140.453 18.8078C140.271 18.862 140.01 18.9286 139.67 19.0074C139.335 19.0862 138.936 19.138 138.473 19.1626C137.536 19.2119 136.751 19.1158 136.115 18.8744C135.479 18.628 135.001 18.2412 134.681 17.714C134.361 17.1868 134.206 16.5265 134.216 15.7333V4.92791ZM149.077 11.4318V14.5064H141.981V11.4318H149.077ZM151.504 23.2571V7.64773H155.555V9.62846H155.643C155.791 9.24414 156.008 8.89185 156.294 8.57158C156.58 8.24638 156.934 7.9877 157.358 7.79554C157.782 7.59846 158.274 7.49991 158.836 7.49991C159.585 7.49991 160.297 7.69946 160.972 8.09857C161.652 8.49767 162.204 9.12589 162.628 9.98322C163.056 10.8406 163.271 11.9541 163.271 13.3239C163.271 14.6345 163.066 15.7209 162.657 16.5832C162.253 17.4455 161.711 18.0885 161.031 18.5122C160.356 18.9359 159.615 19.1478 158.807 19.1478C158.274 19.1478 157.799 19.0616 157.38 18.8891C156.966 18.7118 156.612 18.4728 156.316 18.1722C156.025 17.8667 155.801 17.5218 155.643 17.1375H155.584V23.2571H151.504ZM155.496 13.3239C155.496 13.8757 155.567 14.3536 155.71 14.7577C155.858 15.1568 156.065 15.4672 156.331 15.6889C156.602 15.9057 156.924 16.0141 157.299 16.0141C157.673 16.0141 157.991 15.9082 158.252 15.6963C158.518 15.4795 158.72 15.1716 158.858 14.7725C159.001 14.3684 159.073 13.8856 159.073 13.3239C159.073 12.7622 159.001 12.2818 158.858 11.8827C158.72 11.4786 158.518 11.1707 158.252 10.9588C157.991 10.742 157.673 10.6336 157.299 10.6336C156.924 10.6336 156.602 10.742 156.331 10.9588C156.065 11.1707 155.858 11.4786 155.71 11.8827C155.567 12.2818 155.496 12.7622 155.496 13.3239ZM164.98 19V7.64773H168.941V9.80584H169.06C169.266 9.00763 169.594 8.42376 170.042 8.05422C170.496 7.68468 171.025 7.49991 171.632 7.49991C171.809 7.49991 171.984 7.51469 172.156 7.54426C172.334 7.56889 172.504 7.60585 172.666 7.65512V11.1362C172.464 11.0672 172.215 11.0155 171.92 10.981C171.624 10.9465 171.37 10.9292 171.158 10.9292C170.759 10.9292 170.4 11.0204 170.079 11.2027C169.764 11.3801 169.515 11.6314 169.333 11.9566C169.151 12.2768 169.06 12.6538 169.06 13.0874V19H164.98ZM178.823 19.2069C177.591 19.2069 176.537 18.963 175.659 18.4753C174.782 17.9825 174.11 17.2977 173.642 16.4206C173.174 15.5386 172.94 14.5162 172.94 13.3534C172.94 12.1906 173.174 11.1707 173.642 10.2936C174.11 9.41167 174.782 8.72678 175.659 8.23899C176.537 7.74627 177.591 7.49991 178.823 7.49991C180.055 7.49991 181.109 7.74627 181.986 8.23899C182.863 8.72678 183.536 9.41167 184.004 10.2936C184.472 11.1707 184.706 12.1906 184.706 13.3534C184.706 14.5162 184.472 15.5386 184.004 16.4206C183.536 17.2977 182.863 17.9825 181.986 18.4753C181.109 18.963 180.055 19.2069 178.823 19.2069ZM178.852 16.1915C179.197 16.1915 179.495 16.0757 179.747 15.8441C179.998 15.6125 180.193 15.2824 180.33 14.8538C180.468 14.4251 180.537 13.9151 180.537 13.3239C180.537 12.7277 180.468 12.2177 180.33 11.794C180.193 11.3653 179.998 11.0352 179.747 10.8036C179.495 10.572 179.197 10.4562 178.852 10.4562C178.488 10.4562 178.175 10.572 177.914 10.8036C177.653 11.0352 177.453 11.3653 177.315 11.794C177.177 12.2177 177.108 12.7277 177.108 13.3239C177.108 13.9151 177.177 14.4251 177.315 14.8538C177.453 15.2824 177.653 15.6125 177.914 15.8441C178.175 16.0757 178.488 16.1915 178.852 16.1915ZM197.457 7.64773L193.643 19H188.913L185.099 7.64773H189.386L191.219 15.1568H191.337L193.17 7.64773H197.457ZM198.617 19V7.64773H202.697V19H198.617ZM200.657 6.4652C200.105 6.4652 199.632 6.28289 199.238 5.91828C198.844 5.55367 198.647 5.11515 198.647 4.60272C198.647 4.09029 198.844 3.65177 199.238 3.28715C199.632 2.92254 200.105 2.74023 200.657 2.74023C201.214 2.74023 201.687 2.92254 202.076 3.28715C202.47 3.65177 202.667 4.09029 202.667 4.60272C202.667 5.11515 202.47 5.55367 202.076 5.91828C201.687 6.28289 201.214 6.4652 200.657 6.4652ZM208.885 19.1478C208.077 19.1478 207.333 18.9359 206.653 18.5122C205.978 18.0885 205.436 17.4455 205.027 16.5832C204.623 15.7209 204.421 14.6345 204.421 13.3239C204.421 11.9541 204.633 10.8406 205.056 9.98322C205.485 9.12589 206.037 8.49767 206.712 8.09857C207.392 7.69946 208.106 7.49991 208.855 7.49991C209.417 7.49991 209.91 7.59846 210.333 7.79554C210.757 7.9877 211.112 8.24638 211.398 8.57158C211.683 8.89185 211.9 9.24414 212.048 9.62846H212.107V3.86364H216.187V19H212.137V17.1375H212.048C211.89 17.5218 211.664 17.8667 211.368 18.1722C211.077 18.4728 210.723 18.7118 210.304 18.8891C209.89 19.0616 209.417 19.1478 208.885 19.1478ZM210.393 16.0141C210.767 16.0141 211.087 15.9057 211.353 15.6889C211.624 15.4672 211.831 15.1568 211.974 14.7577C212.122 14.3536 212.196 13.8757 212.196 13.3239C212.196 12.7622 212.122 12.2818 211.974 11.8827C211.831 11.4786 211.624 11.1707 211.353 10.9588C211.087 10.742 210.767 10.6336 210.393 10.6336C210.018 10.6336 209.698 10.742 209.432 10.9588C209.171 11.1707 208.969 11.4786 208.826 11.8827C208.688 12.2818 208.619 12.7622 208.619 13.3239C208.619 13.8856 208.688 14.3684 208.826 14.7725C208.969 15.1716 209.171 15.4795 209.432 15.6963C209.698 15.9082 210.018 16.0141 210.393 16.0141ZM223.629 19.2069C222.417 19.2069 221.373 18.9754 220.496 18.5122C219.624 18.0441 218.951 17.374 218.478 16.5019C218.01 15.6249 217.776 14.5754 217.776 13.3534C217.776 12.1808 218.012 11.1559 218.485 10.2789C218.959 9.40181 219.626 8.71939 220.488 8.2316C221.351 7.74381 222.368 7.49991 223.541 7.49991C224.398 7.49991 225.174 7.63295 225.869 7.89901C226.564 8.16508 227.157 8.55187 227.65 9.05937C228.143 9.56195 228.522 10.1729 228.788 10.8923C229.054 11.6117 229.187 12.4222 229.187 13.3239V14.2699H219.047V12.0231H225.433C225.428 11.6979 225.344 11.4121 225.182 11.1657C225.024 10.9145 224.81 10.7198 224.539 10.5819C224.272 10.439 223.969 10.3675 223.629 10.3675C223.299 10.3675 222.996 10.439 222.72 10.5819C222.445 10.7198 222.223 10.912 222.055 11.1584C221.893 11.4047 221.806 11.693 221.797 12.0231V14.4473C221.797 14.8119 221.873 15.1371 222.026 15.4229C222.178 15.7086 222.398 15.9328 222.683 16.0954C222.969 16.258 223.314 16.3393 223.718 16.3393C223.999 16.3393 224.255 16.2999 224.487 16.2211C224.723 16.1422 224.925 16.0289 225.093 15.8811C225.26 15.7283 225.384 15.546 225.462 15.3342H229.187C229.059 16.1225 228.756 16.8074 228.278 17.3888C227.8 17.9653 227.167 18.4137 226.379 18.7339C225.595 19.0493 224.679 19.2069 223.629 19.2069ZM230.852 19V7.64773H234.814V9.80584H234.932C235.139 9.00763 235.466 8.42376 235.915 8.05422C236.368 7.68468 236.898 7.49991 237.504 7.49991C237.681 7.49991 237.856 7.51469 238.029 7.54426C238.206 7.56889 238.376 7.60585 238.539 7.65512V11.1362C238.337 11.0672 238.088 11.0155 237.792 10.981C237.496 10.9465 237.243 10.9292 237.031 10.9292C236.632 10.9292 236.272 11.0204 235.952 11.2027C235.636 11.3801 235.388 11.6314 235.205 11.9566C235.023 12.2768 234.932 12.6538 234.932 13.0874V19H230.852ZM250.253 11.3431H246.498C246.479 11.1115 246.397 10.912 246.255 10.7445C246.112 10.5769 245.927 10.4488 245.7 10.3602C245.479 10.2665 245.232 10.2197 244.961 10.2197C244.611 10.2197 244.311 10.2838 244.06 10.4119C243.808 10.54 243.685 10.7223 243.69 10.9588C243.685 11.1263 243.756 11.2815 243.904 11.4244C244.057 11.5673 244.35 11.6782 244.784 11.757L247.09 12.1709C248.253 12.3828 249.117 12.74 249.684 13.2426C250.255 13.7402 250.544 14.4078 250.549 15.2455C250.544 16.0535 250.302 16.7557 249.824 17.3519C249.351 17.9431 248.703 18.4013 247.881 18.7265C247.063 19.0468 246.129 19.2069 245.079 19.2069C243.345 19.2069 241.988 18.8522 241.007 18.1427C240.032 17.4331 239.487 16.497 239.374 15.3342H243.424C243.478 15.6938 243.655 15.9722 243.956 16.1693C244.262 16.3615 244.646 16.4576 245.109 16.4576C245.483 16.4576 245.791 16.3935 246.033 16.2654C246.279 16.1373 246.405 15.955 246.41 15.7185C246.405 15.5017 246.296 15.3292 246.085 15.2011C245.878 15.073 245.552 14.9695 245.109 14.8907L243.099 14.536C241.941 14.3339 241.074 13.9496 240.497 13.383C239.921 12.8164 239.635 12.0871 239.64 11.1953C239.635 10.407 239.842 9.73932 240.261 9.1924C240.684 8.64056 241.288 8.22175 242.071 7.93597C242.86 7.64526 243.793 7.49991 244.873 7.49991C246.513 7.49991 247.807 7.83989 248.753 8.51984C249.704 9.1998 250.204 10.1409 250.253 11.3431Z" fill="black"/>
<path d="M61.8198 30.5281V31.4315H58.3379V30.5281H61.8198ZM58.5678 27.8182V34.125H57.5988V27.8182H58.5678ZM62.5589 27.8182V34.125H61.5898V27.8182H62.5589ZM66.1845 34.2728C65.7848 34.2728 65.4221 34.1975 65.0964 34.047C64.7706 33.8937 64.5119 33.6733 64.3203 33.3859C64.1287 33.0958 64.0329 32.7454 64.0329 32.3348C64.0329 31.9735 64.1041 31.6806 64.2464 31.4561C64.3888 31.2289 64.579 31.051 64.8172 30.9223C65.0553 30.7937 65.3181 30.6979 65.6055 30.6349C65.8957 30.5692 66.1872 30.5172 66.4801 30.4789C66.8633 30.4296 67.174 30.3926 67.4122 30.368C67.653 30.3406 67.8282 30.2955 67.9377 30.2325C68.05 30.1696 68.1061 30.0601 68.1061 29.904V29.8712C68.1061 29.4661 67.9952 29.1513 67.7735 28.9268C67.5545 28.7023 67.2219 28.5901 66.7757 28.5901C66.3131 28.5901 65.9504 28.6914 65.6876 28.894C65.4248 29.0965 65.2401 29.3128 65.1333 29.5427L64.2136 29.2142C64.3778 28.831 64.5968 28.5326 64.8705 28.3191C65.147 28.1029 65.4481 27.9523 65.7739 27.8675C66.1023 27.7799 66.4253 27.7361 66.7429 27.7361C66.9454 27.7361 67.1781 27.7607 67.4409 27.81C67.7064 27.8565 67.9624 27.9537 68.2087 28.1015C68.4578 28.2493 68.6645 28.4724 68.8287 28.7708C68.993 29.0691 69.0751 29.4688 69.0751 29.9697V34.125H68.1061V33.271H68.0568C67.9911 33.4078 67.8816 33.5543 67.7283 33.7103C67.575 33.8663 67.3711 33.9991 67.1165 34.1086C66.8619 34.2181 66.5513 34.2728 66.1845 34.2728ZM66.3323 33.4023C66.7155 33.4023 67.0385 33.3271 67.3013 33.1765C67.5668 33.026 67.7666 32.8316 67.9008 32.5935C68.0376 32.3553 68.1061 32.1048 68.1061 31.8421V30.9552C68.065 31.0044 67.9747 31.0496 67.8351 31.0907C67.6982 31.129 67.5394 31.1632 67.3588 31.1933C67.1808 31.2207 67.007 31.2453 66.8373 31.2672C66.6703 31.2864 66.5348 31.3028 66.4308 31.3165C66.179 31.3493 65.9436 31.4027 65.7246 31.4766C65.5083 31.5478 65.3331 31.6559 65.199 31.801C65.0676 31.9433 65.0019 32.1377 65.0019 32.3841C65.0019 32.7207 65.1265 32.9753 65.3756 33.1478C65.6274 33.3175 65.9463 33.4023 66.3323 33.4023ZM71.8128 32.6961L74.8512 27.8182H75.968V34.125H74.999V29.2471L71.977 34.125H70.8437V27.8182H71.8128V32.6961ZM74.2107 25.7159H75.114C75.114 26.1594 74.9607 26.5221 74.6541 26.804C74.3475 27.0859 73.9315 27.2269 73.4059 27.2269C72.8885 27.2269 72.4766 27.0859 72.17 26.804C71.8661 26.5221 71.7142 26.1594 71.7142 25.7159H72.6175C72.6175 25.9294 72.6764 26.1169 72.7941 26.2784C72.9145 26.4399 73.1185 26.5207 73.4059 26.5207C73.6933 26.5207 73.8986 26.4399 74.0218 26.2784C74.1477 26.1169 74.2107 25.9294 74.2107 25.7159ZM77.0695 35.9316V33.2217H77.595C77.7237 33.0876 77.8346 32.9425 77.9276 32.7864C78.0207 32.6304 78.1014 32.4456 78.1699 32.2321C78.241 32.0159 78.3013 31.7531 78.3505 31.4438C78.3998 31.1317 78.4436 30.7553 78.4819 30.3146L78.6954 27.8182H82.7029V33.2217H83.6719V35.9316H82.7029V34.125H78.0385V35.9316H77.0695ZM78.6954 33.2217H81.7339V28.7215H79.5988L79.4345 30.3146C79.3661 30.9743 79.2812 31.5505 79.18 32.0433C79.0787 32.536 78.9172 32.9288 78.6954 33.2217ZM85.9271 32.6961L88.9656 27.8182H90.0824V34.125H89.1134V29.2471L86.0914 34.125H84.9581V27.8182H85.9271V32.6961ZM94.5508 34.125V33.2217H94.7807C94.9696 33.2217 95.127 33.1847 95.2529 33.1108C95.3788 33.0342 95.4801 32.9014 95.5567 32.7125C95.6361 32.5209 95.6963 32.2554 95.7374 31.916C95.7812 31.5738 95.8127 31.1386 95.8318 30.6103L95.9468 27.8182H100.151V34.125H99.1823V28.7215H96.8666L96.768 30.9716C96.7461 31.4889 96.6996 31.9447 96.6284 32.3389C96.56 32.7303 96.4546 33.0588 96.3122 33.3243C96.1726 33.5899 95.9865 33.7897 95.7538 33.9238C95.5212 34.0579 95.2296 34.125 94.8793 34.125H94.5508ZM102.328 36.4901C102.163 36.4901 102.017 36.4764 101.888 36.449C101.76 36.4244 101.671 36.3997 101.621 36.3751L101.868 35.521C102.103 35.5813 102.311 35.6032 102.492 35.5867C102.672 35.5703 102.833 35.4896 102.972 35.3445C103.115 35.2021 103.245 34.9708 103.362 34.6506L103.543 34.1578L101.211 27.8182H102.262L104.003 32.8439H104.068L105.809 27.8182H106.861L104.183 35.0447C104.063 35.3705 103.914 35.6401 103.736 35.8536C103.558 36.0699 103.351 36.23 103.116 36.334C102.883 36.438 102.62 36.4901 102.328 36.4901ZM112.809 27.8182V34.125H111.84V27.8182H112.809ZM112.431 30.8238V31.7271C112.212 31.8092 111.995 31.8818 111.779 31.9447C111.562 32.0049 111.335 32.0528 111.097 32.0884C110.859 32.1213 110.597 32.1377 110.313 32.1377C109.598 32.1377 109.025 31.9447 108.592 31.5587C108.163 31.1728 107.948 30.5938 107.948 29.8219V27.8018H108.917V29.8219C108.917 30.1449 108.978 30.4104 109.101 30.6185C109.225 30.8265 109.392 30.9812 109.602 31.0825C109.813 31.1837 110.05 31.2344 110.313 31.2344C110.723 31.2344 111.094 31.1974 111.425 31.1235C111.759 31.0469 112.095 30.947 112.431 30.8238ZM114.587 27.8182H115.556V33.2217H117.938V27.8182H118.907V33.2217H121.288V27.8182H122.257V34.125H114.587V27.8182ZM126.671 34.2564C126.063 34.2564 125.539 34.1223 125.098 33.854C124.66 33.583 124.322 33.2053 124.084 32.7207C123.849 32.2335 123.731 31.6669 123.731 31.0209C123.731 30.3749 123.849 29.8055 124.084 29.3128C124.322 28.8173 124.654 28.4313 125.078 28.1549C125.505 27.8757 126.003 27.7361 126.572 27.7361C126.901 27.7361 127.225 27.7908 127.546 27.9003C127.866 28.0098 128.157 28.1877 128.42 28.4341C128.683 28.6777 128.892 29.0007 129.048 29.4031C129.204 29.8055 129.282 30.3009 129.282 30.8895V31.3001H124.421V30.4624H128.297C128.297 30.1066 128.226 29.7891 128.083 29.5099C127.944 29.2306 127.744 29.0103 127.484 28.8488C127.227 28.6873 126.923 28.6065 126.572 28.6065C126.186 28.6065 125.853 28.7023 125.571 28.894C125.291 29.0828 125.076 29.3292 124.926 29.633C124.775 29.9369 124.7 30.2626 124.7 30.6103V31.1687C124.7 31.645 124.782 32.0487 124.946 32.3799C125.113 32.7084 125.345 32.9589 125.64 33.1313C125.936 33.3011 126.28 33.3859 126.671 33.3859C126.926 33.3859 127.156 33.3503 127.361 33.2792C127.569 33.2053 127.748 33.0958 127.899 32.9507C128.049 32.8029 128.166 32.6195 128.248 32.4005L129.184 32.6633C129.085 32.9808 128.92 33.26 128.687 33.5009C128.454 33.739 128.167 33.9252 127.825 34.0593C127.483 34.1907 127.098 34.2564 126.671 34.2564ZM134.649 27.8182V28.7215H131.725V34.125H130.756V27.8182H134.649ZM138.298 34.2564C137.729 34.2564 137.229 34.1209 136.799 33.8499C136.372 33.5789 136.038 33.1998 135.798 32.7125C135.559 32.2253 135.44 31.6559 135.44 31.0044C135.44 30.3475 135.559 29.774 135.798 29.284C136.038 28.794 136.372 28.4136 136.799 28.1426C137.229 27.8716 137.729 27.7361 138.298 27.7361C138.868 27.7361 139.366 27.8716 139.793 28.1426C140.223 28.4136 140.556 28.794 140.795 29.284C141.035 29.774 141.156 30.3475 141.156 31.0044C141.156 31.6559 141.035 32.2253 140.795 32.7125C140.556 33.1998 140.223 33.5789 139.793 33.8499C139.366 34.1209 138.868 34.2564 138.298 34.2564ZM138.298 33.3859C138.731 33.3859 139.087 33.2751 139.366 33.0533C139.645 32.8316 139.852 32.5401 139.986 32.1788C140.12 31.8174 140.187 31.426 140.187 31.0044C140.187 30.5829 140.12 30.1901 139.986 29.826C139.852 29.462 139.645 29.1677 139.366 28.9432C139.087 28.7188 138.731 28.6065 138.298 28.6065C137.866 28.6065 137.51 28.7188 137.231 28.9432C136.951 29.1677 136.745 29.462 136.611 29.826C136.476 30.1901 136.409 30.5829 136.409 31.0044C136.409 31.426 136.476 31.8174 136.611 32.1788C136.745 32.5401 136.951 32.8316 137.231 33.0533C137.51 33.2751 137.866 33.3859 138.298 33.3859ZM145.887 34.125V27.8182H150.847V34.125H149.878V28.7215H146.856V34.125H145.887ZM152.617 36.4901V27.8182H153.553V28.82H153.668C153.739 28.7106 153.838 28.5709 153.964 28.4012C154.092 28.2288 154.276 28.0755 154.514 27.9414C154.755 27.8045 155.08 27.7361 155.491 27.7361C156.022 27.7361 156.49 27.8688 156.895 28.1343C157.3 28.3999 157.617 28.7762 157.844 29.2635C158.071 29.7507 158.185 30.3256 158.185 30.988C158.185 31.6559 158.071 32.2349 157.844 32.7249C157.617 33.2121 157.302 33.5899 156.899 33.8581C156.497 34.1236 156.033 34.2564 155.507 34.2564C155.102 34.2564 154.778 34.1893 154.534 34.0552C154.291 33.9183 154.103 33.7637 153.972 33.5912C153.84 33.416 153.739 33.271 153.668 33.156H153.586V36.4901H152.617ZM153.569 30.9716C153.569 31.4479 153.639 31.8681 153.779 32.2321C153.918 32.5935 154.122 32.8768 154.391 33.0821C154.659 33.2846 154.987 33.3859 155.376 33.3859C155.781 33.3859 156.119 33.2792 156.39 33.0657C156.664 32.8494 156.869 32.5592 157.006 32.1952C157.146 31.8284 157.216 31.4205 157.216 30.9716C157.216 30.5281 157.147 30.1285 157.01 29.7726C156.876 29.414 156.672 29.1307 156.398 28.9227C156.127 28.7119 155.787 28.6065 155.376 28.6065C154.982 28.6065 154.651 28.7064 154.382 28.9063C154.114 29.1034 153.912 29.3798 153.775 29.7357C153.638 30.0888 153.569 30.5008 153.569 30.9716ZM162.225 34.2564C161.655 34.2564 161.156 34.1209 160.726 33.8499C160.299 33.5789 159.965 33.1998 159.724 32.7125C159.486 32.2253 159.367 31.6559 159.367 31.0044C159.367 30.3475 159.486 29.774 159.724 29.284C159.965 28.794 160.299 28.4136 160.726 28.1426C161.156 27.8716 161.655 27.7361 162.225 27.7361C162.794 27.7361 163.292 27.8716 163.719 28.1426C164.149 28.4136 164.483 28.794 164.721 29.284C164.962 29.774 165.083 30.3475 165.083 31.0044C165.083 31.6559 164.962 32.2253 164.721 32.7125C164.483 33.1998 164.149 33.5789 163.719 33.8499C163.292 34.1209 162.794 34.2564 162.225 34.2564ZM162.225 33.3859C162.657 33.3859 163.013 33.2751 163.292 33.0533C163.572 32.8316 163.778 32.5401 163.912 32.1788C164.047 31.8174 164.114 31.426 164.114 31.0044C164.114 30.5829 164.047 30.1901 163.912 29.826C163.778 29.462 163.572 29.1677 163.292 28.9432C163.013 28.7188 162.657 28.6065 162.225 28.6065C161.792 28.6065 161.437 28.7188 161.157 28.9432C160.878 29.1677 160.671 29.462 160.537 29.826C160.403 30.1901 160.336 30.5829 160.336 31.0044C160.336 31.426 160.403 31.8174 160.537 32.1788C160.671 32.5401 160.878 32.8316 161.157 33.0533C161.437 33.2751 161.792 33.3859 162.225 33.3859ZM166.562 34.125V27.8182H169.14C169.819 27.8182 170.359 27.9715 170.758 28.2781C171.158 28.5846 171.358 28.9898 171.358 29.4934C171.358 29.8767 171.244 30.1737 171.017 30.3844C170.79 30.5925 170.498 30.7334 170.142 30.8074C170.375 30.8402 170.601 30.9223 170.82 31.0537C171.041 31.1851 171.225 31.3658 171.37 31.5957C171.515 31.8229 171.588 32.1021 171.588 32.4333C171.588 32.7563 171.505 33.0451 171.341 33.2997C171.177 33.5543 170.942 33.7555 170.635 33.9033C170.328 34.0511 169.962 34.125 169.535 34.125H166.562ZM167.482 33.2381H169.535C169.869 33.2381 170.13 33.1587 170.319 33C170.508 32.8412 170.602 32.6249 170.602 32.3512C170.602 32.0255 170.508 31.7695 170.319 31.5834C170.13 31.3945 169.869 31.3001 169.535 31.3001H167.482V33.2381ZM167.482 30.4624H169.14C169.4 30.4624 169.624 30.4269 169.81 30.3557C169.996 30.2818 170.138 30.1778 170.237 30.0436C170.338 29.9068 170.389 29.7453 170.389 29.5591C170.389 29.2936 170.278 29.0856 170.056 28.935C169.834 28.7817 169.529 28.7051 169.14 28.7051H167.482V30.4624ZM174.91 34.2728C174.511 34.2728 174.148 34.1975 173.822 34.047C173.497 33.8937 173.238 33.6733 173.046 33.3859C172.855 33.0958 172.759 32.7454 172.759 32.3348C172.759 31.9735 172.83 31.6806 172.972 31.4561C173.115 31.2289 173.305 31.051 173.543 30.9223C173.781 30.7937 174.044 30.6979 174.331 30.6349C174.622 30.5692 174.913 30.5172 175.206 30.4789C175.589 30.4296 175.9 30.3926 176.138 30.368C176.379 30.3406 176.554 30.2955 176.664 30.2325C176.776 30.1696 176.832 30.0601 176.832 29.904V29.8712C176.832 29.4661 176.721 29.1513 176.499 28.9268C176.28 28.7023 175.948 28.5901 175.502 28.5901C175.039 28.5901 174.676 28.6914 174.414 28.894C174.151 29.0965 173.966 29.3128 173.859 29.5427L172.939 29.2142C173.104 28.831 173.323 28.5326 173.596 28.3191C173.873 28.1029 174.174 27.9523 174.5 27.8675C174.828 27.7799 175.151 27.7361 175.469 27.7361C175.671 27.7361 175.904 27.7607 176.167 27.81C176.432 27.8565 176.688 27.9537 176.935 28.1015C177.184 28.2493 177.39 28.4724 177.555 28.7708C177.719 29.0691 177.801 29.4688 177.801 29.9697V34.125H176.832V33.271H176.783C176.717 33.4078 176.607 33.5543 176.454 33.7103C176.301 33.8663 176.097 33.9991 175.842 34.1086C175.588 34.2181 175.277 34.2728 174.91 34.2728ZM175.058 33.4023C175.441 33.4023 175.764 33.3271 176.027 33.1765C176.293 33.026 176.493 32.8316 176.627 32.5935C176.764 32.3553 176.832 32.1048 176.832 31.8421V30.9552C176.791 31.0044 176.701 31.0496 176.561 31.0907C176.424 31.129 176.265 31.1632 176.085 31.1933C175.907 31.2207 175.733 31.2453 175.563 31.2672C175.396 31.2864 175.261 31.3028 175.157 31.3165C174.905 31.3493 174.669 31.4027 174.45 31.4766C174.234 31.5478 174.059 31.6559 173.925 31.801C173.794 31.9433 173.728 32.1377 173.728 32.3841C173.728 32.7207 173.852 32.9753 174.101 33.1478C174.353 33.3175 174.672 33.4023 175.058 33.4023ZM180.539 32.6961L183.577 27.8182H184.694V34.125H183.725V29.2471L180.703 34.125H179.57V27.8182H180.539V32.6961ZM182.937 25.7159H183.84C183.84 26.1594 183.687 26.5221 183.38 26.804C183.073 27.0859 182.657 27.2269 182.132 27.2269C181.614 27.2269 181.202 27.0859 180.896 26.804C180.592 26.5221 180.44 26.1594 180.44 25.7159H181.343C181.343 25.9294 181.402 26.1169 181.52 26.2784C181.64 26.4399 181.844 26.5207 182.132 26.5207C182.419 26.5207 182.625 26.4399 182.748 26.2784C182.874 26.1169 182.937 25.9294 182.937 25.7159ZM185.795 35.9316V33.2217H186.321C186.45 33.0876 186.56 32.9425 186.654 32.7864C186.747 32.6304 186.827 32.4456 186.896 32.2321C186.967 32.0159 187.027 31.7531 187.076 31.4438C187.126 31.1317 187.17 30.7553 187.208 30.3146L187.421 27.8182H191.429V33.2217H192.398V35.9316H191.429V34.125H186.764V35.9316H185.795ZM187.421 33.2217H190.46V28.7215H188.325L188.16 30.3146C188.092 30.9743 188.007 31.5505 187.906 32.0433C187.805 32.536 187.643 32.9288 187.421 33.2217ZM196.328 34.2564C195.721 34.2564 195.196 34.1223 194.756 33.854C194.318 33.583 193.98 33.2053 193.741 32.7207C193.506 32.2335 193.388 31.6669 193.388 31.0209C193.388 30.3749 193.506 29.8055 193.741 29.3128C193.98 28.8173 194.311 28.4313 194.735 28.1549C195.162 27.8757 195.66 27.7361 196.23 27.7361C196.558 27.7361 196.883 27.7908 197.203 27.9003C197.523 28.0098 197.815 28.1877 198.077 28.4341C198.34 28.6777 198.55 29.0007 198.706 29.4031C198.862 29.8055 198.94 30.3009 198.94 30.8895V31.3001H194.078V30.4624H197.954C197.954 30.1066 197.883 29.7891 197.741 29.5099C197.601 29.2306 197.401 29.0103 197.141 28.8488C196.884 28.6873 196.58 28.6065 196.23 28.6065C195.844 28.6065 195.51 28.7023 195.228 28.894C194.949 29.0828 194.734 29.3292 194.583 29.633C194.433 29.9369 194.357 30.2626 194.357 30.6103V31.1687C194.357 31.645 194.44 32.0487 194.604 32.3799C194.771 32.7084 195.002 32.9589 195.298 33.1313C195.593 33.3011 195.937 33.3859 196.328 33.3859C196.583 33.3859 196.813 33.3503 197.018 33.2792C197.226 33.2053 197.405 33.0958 197.556 32.9507C197.707 32.8029 197.823 32.6195 197.905 32.4005L198.841 32.6633C198.743 32.9808 198.577 33.26 198.344 33.5009C198.112 33.739 197.824 33.9252 197.482 34.0593C197.14 34.1907 196.755 34.2564 196.328 34.2564ZM200.414 36.4901V27.8182H201.35V28.82H201.465C201.536 28.7106 201.635 28.5709 201.761 28.4012C201.889 28.2288 202.073 28.0755 202.311 27.9414C202.552 27.8045 202.877 27.7361 203.288 27.7361C203.819 27.7361 204.287 27.8688 204.692 28.1343C205.097 28.3999 205.413 28.7762 205.641 29.2635C205.868 29.7507 205.981 30.3256 205.981 30.988C205.981 31.6559 205.868 32.2349 205.641 32.7249C205.413 33.2121 205.099 33.5899 204.696 33.8581C204.294 34.1236 203.83 34.2564 203.304 34.2564C202.899 34.2564 202.575 34.1893 202.331 34.0552C202.088 33.9183 201.9 33.7637 201.769 33.5912C201.637 33.416 201.536 33.271 201.465 33.156H201.383V36.4901H200.414ZM201.366 30.9716C201.366 31.4479 201.436 31.8681 201.576 32.2321C201.715 32.5935 201.919 32.8768 202.188 33.0821C202.456 33.2846 202.784 33.3859 203.173 33.3859C203.578 33.3859 203.916 33.2792 204.187 33.0657C204.461 32.8494 204.666 32.5592 204.803 32.1952C204.943 31.8284 205.012 31.4205 205.012 30.9716C205.012 30.5281 204.944 30.1285 204.807 29.7726C204.673 29.414 204.469 29.1307 204.195 28.9227C203.924 28.7119 203.584 28.6065 203.173 28.6065C202.779 28.6065 202.448 28.7064 202.179 28.9063C201.911 29.1034 201.709 29.3798 201.572 29.7357C201.435 30.0888 201.366 30.5008 201.366 30.9716ZM209.316 34.2728C208.916 34.2728 208.553 34.1975 208.227 34.047C207.902 33.8937 207.643 33.6733 207.451 33.3859C207.26 33.0958 207.164 32.7454 207.164 32.3348C207.164 31.9735 207.235 31.6806 207.378 31.4561C207.52 31.2289 207.71 31.051 207.948 30.9223C208.186 30.7937 208.449 30.6979 208.737 30.6349C209.027 30.5692 209.318 30.5172 209.611 30.4789C209.994 30.4296 210.305 30.3926 210.543 30.368C210.784 30.3406 210.959 30.2955 211.069 30.2325C211.181 30.1696 211.237 30.0601 211.237 29.904V29.8712C211.237 29.4661 211.126 29.1513 210.905 28.9268C210.686 28.7023 210.353 28.5901 209.907 28.5901C209.444 28.5901 209.082 28.6914 208.819 28.894C208.556 29.0965 208.371 29.3128 208.264 29.5427L207.345 29.2142C207.509 28.831 207.728 28.5326 208.002 28.3191C208.278 28.1029 208.579 27.9523 208.905 27.8675C209.233 27.7799 209.556 27.7361 209.874 27.7361C210.077 27.7361 210.309 27.7607 210.572 27.81C210.838 27.8565 211.093 27.9537 211.34 28.1015C211.589 28.2493 211.796 28.4724 211.96 28.7708C212.124 29.0691 212.206 29.4688 212.206 29.9697V34.125H211.237V33.271H211.188C211.122 33.4078 211.013 33.5543 210.859 33.7103C210.706 33.8663 210.502 33.9991 210.248 34.1086C209.993 34.2181 209.682 34.2728 209.316 34.2728ZM209.463 33.4023C209.847 33.4023 210.17 33.3271 210.432 33.1765C210.698 33.026 210.898 32.8316 211.032 32.5935C211.169 32.3553 211.237 32.1048 211.237 31.8421V30.9552C211.196 31.0044 211.106 31.0496 210.966 31.0907C210.829 31.129 210.671 31.1632 210.49 31.1933C210.312 31.2207 210.138 31.2453 209.968 31.2672C209.801 31.2864 209.666 31.3028 209.562 31.3165C209.31 31.3493 209.075 31.4027 208.856 31.4766C208.639 31.5478 208.464 31.6559 208.33 31.801C208.199 31.9433 208.133 32.1377 208.133 32.3841C208.133 32.7207 208.258 32.9753 208.507 33.1478C208.759 33.3175 209.077 33.4023 209.463 33.4023Z" fill="black"/>
<g style="mix-blend-mode:multiply">
<ellipse cx="32.2927" cy="18.5" rx="18.5" ry="18.6311" transform="rotate(-90 32.2927 18.5)" fill="#8DC2FF"/>
</g>
<g style="mix-blend-mode:multiply">
<ellipse cx="18.6316" cy="18.4997" rx="12.3333" ry="12.4207" transform="rotate(-90 18.6316 18.4997)" fill="#8DC2FF"/>
</g>
<g style="mix-blend-mode:multiply">
<ellipse cx="6.21035" cy="18.5003" rx="6.16667" ry="6.21035" transform="rotate(-90 6.21035 18.5003)" fill="#8DC2FF"/>
</g>
</svg>
