<svg width="24" height="24" viewBox="0 0 24 24" fill="none" xmlns="http://www.w3.org/2000/svg">
<path fill-rule="evenodd" clip-rule="evenodd" d="M19 10.1429C19 11.0358 18.6431 12.1722 17.9991 13.4398C17.3647 14.6884 16.498 15.9751 15.5867 17.1426C14.6764 18.3088 13.74 19.3326 12.9816 20.0562C12.6005 20.4198 12.2796 20.6929 12.0404 20.8679C12.0264 20.8781 12.0129 20.8879 12 20.8971C11.9871 20.8879 11.9736 20.8781 11.9596 20.8679C11.7204 20.6929 11.3995 20.4198 11.0184 20.0562C10.26 19.3326 9.32361 18.3088 8.41329 17.1426C7.50202 15.9751 6.63527 14.6884 6.00091 13.4398C5.35686 12.1722 5 11.0358 5 10.1429C5 6.18121 8.15062 3 12 3C15.8494 3 19 6.18121 19 10.1429ZM11.7674 21.0409C11.7675 21.0405 11.773 21.0378 11.7833 21.034C11.7724 21.0394 11.7672 21.0413 11.7674 21.0409ZM12.2167 21.034C12.227 21.0378 12.2324 21.0405 12.2326 21.0409C12.2328 21.0413 12.2276 21.0394 12.2167 21.034ZM20 10.1429C20 14.64 13 22 12 22C11 22 4 14.64 4 10.1429C4 5.64568 7.58172 2 12 2C16.4183 2 20 5.64568 20 10.1429ZM14 10C14 11.1046 13.1046 12 12 12C10.8954 12 10 11.1046 10 10C10 8.89543 10.8954 8 12 8C13.1046 8 14 8.89543 14 10ZM15 10C15 11.6569 13.6569 13 12 13C10.3431 13 9 11.6569 9 10C9 8.34315 10.3431 7 12 7C13.6569 7 15 8.34315 15 10Z" fill="#8DC2FF"/>
</svg>
